<svg width="256" height="256" fill="none" xmlns="http://www.w3.org/2000/svg"><rect width="256" height="256" rx="24" fill="#001347"/><path d="M115.116 201.747c-1.556 0-2.829-.495-3.819-1.485-.99-.99-1.485-2.263-1.485-3.819V58.557c0-1.556.495-2.829 1.485-3.819.99-.99 2.263-1.484 3.819-1.484h28.001c1.414 0 2.616.494 3.606 1.484 1.132.99 1.697 2.263 1.697 3.819v111.157h64.065c1.555 0 2.828.566 3.818 1.698 1.131.989 1.697 2.262 1.697 3.818v21.213c0 1.556-.566 2.829-1.697 3.819-.99.99-2.263 1.485-3.818 1.485h-97.369Z" fill="#F7F9FF"/><circle cx="54.305" cy="70.224" r="15.556" fill="#F7F9FF"/><circle cx="54.305" cy="186.19" r="15.556" fill="#F7F9FF"/><circle cx="54.305" cy="128.207" r="15.556" fill="#F7F9FF"/></svg>