<svg width="256" height="256" fill="none" xmlns="http://www.w3.org/2000/svg"><rect width="256" height="256" rx="24" fill="#001347"/><path d="M118.999 180c-1.1 0-2-.35-2.7-1.05-.7-.7-1.05-1.6-1.05-2.7v-97.5c0-1.1.35-2 1.05-2.7.7-.7 1.6-1.05 2.7-1.05h19.8c1 0 1.85.35 2.55 1.05.8.7 1.2 1.6 1.2 2.7v78.6h45.3c1.1 0 2 .4 2.7 1.2.8.7 1.2 1.6 1.2 2.7v15c0 1.1-.4 2-1.2 2.7-.7.7-1.6 1.05-2.7 1.05h-68.85Z" fill="#F7F9FF"/><circle cx="76" cy="87" r="11" fill="#F7F9FF"/><circle cx="76" cy="169" r="11" fill="#F7F9FF"/><circle cx="76" cy="128" r="11" fill="#F7F9FF"/></svg>